# ORYZO-1-q4
# Open-weight coaster model. Surface of revolution.
# Scale: 1 unit = 47 mm (94 mm diameter, 8 mm profile height).
# Radial segments: 32
# Vertices: 322  Faces: 352
mtllib oryzo-1.mtl
o ORYZO-1-q4
v 0 0 0
v 0.965 0 0
v 0.946458 0 0.188262
v 0.891544 0 0.36929
v 0.802368 0 0.536125
v 0.682358 0 0.682358
v 0.536125 0 0.802368
v 0.36929 0 0.891544
v 0.188262 0 0.946458
v 0 0 0.965
v -0.188262 0 0.946458
v -0.36929 0 0.891544
v -0.536125 0 0.802368
v -0.682358 0 0.682358
v -0.802368 0 0.536125
v -0.891544 0 0.36929
v -0.946458 0 0.188262
v -0.965 0 0
v -0.946458 0 -0.188262
v -0.891544 0 -0.36929
v -0.802368 0 -0.536125
v -0.682358 0 -0.682358
v -0.536125 0 -0.802368
v -0.36929 0 -0.891544
v -0.188262 0 -0.946458
v 0 0 -0.965
v 0.188262 0 -0.946458
v 0.36929 0 -0.891544
v 0.536125 0 -0.802368
v 0.682358 0 -0.682358
v 0.802368 0 -0.536125
v 0.891544 0 -0.36929
v 0.946458 0 -0.188262
v 0.989749 0.010251 0
v 0.970731 0.010251 0.19309
v 0.914409 0.010251 0.37876
v 0.822946 0.010251 0.549875
v 0.699858 0.010251 0.699858
v 0.549875 0.010251 0.822946
v 0.37876 0.010251 0.914409
v 0.19309 0.010251 0.970731
v 0 0.010251 0.989749
v -0.19309 0.010251 0.970731
v -0.37876 0.010251 0.914409
v -0.549875 0.010251 0.822946
v -0.699858 0.010251 0.699858
v -0.822946 0.010251 0.549875
v -0.914409 0.010251 0.37876
v -0.970731 0.010251 0.19309
v -0.989749 0.010251 0
v -0.970731 0.010251 -0.19309
v -0.914409 0.010251 -0.37876
v -0.822946 0.010251 -0.549875
v -0.699858 0.010251 -0.699858
v -0.549875 0.010251 -0.822946
v -0.37876 0.010251 -0.914409
v -0.19309 0.010251 -0.970731
v 0 0.010251 -0.989749
v 0.19309 0.010251 -0.970731
v 0.37876 0.010251 -0.914409
v 0.549875 0.010251 -0.822946
v 0.699858 0.010251 -0.699858
v 0.822946 0.010251 -0.549875
v 0.914409 0.010251 -0.37876
v 0.970731 0.010251 -0.19309
v 1 0.035 0
v 0.980785 0.035 0.19509
v 0.92388 0.035 0.382683
v 0.83147 0.035 0.55557
v 0.707107 0.035 0.707107
v 0.55557 0.035 0.83147
v 0.382683 0.035 0.92388
v 0.19509 0.035 0.980785
v 0 0.035 1
v -0.19509 0.035 0.980785
v -0.382683 0.035 0.92388
v -0.55557 0.035 0.83147
v -0.707107 0.035 0.707107
v -0.83147 0.035 0.55557
v -0.92388 0.035 0.382683
v -0.980785 0.035 0.19509
v -1 0.035 0
v -0.980785 0.035 -0.19509
v -0.92388 0.035 -0.382683
v -0.83147 0.035 -0.55557
v -0.707107 0.035 -0.707107
v -0.55557 0.035 -0.83147
v -0.382683 0.035 -0.92388
v -0.19509 0.035 -0.980785
v 0 0.035 -1
v 0.19509 0.035 -0.980785
v 0.382683 0.035 -0.92388
v 0.55557 0.035 -0.83147
v 0.707107 0.035 -0.707107
v 0.83147 0.035 -0.55557
v 0.92388 0.035 -0.382683
v 0.980785 0.035 -0.19509
v 1 0.125 0
v 0.980785 0.125 0.19509
v 0.92388 0.125 0.382683
v 0.83147 0.125 0.55557
v 0.707107 0.125 0.707107
v 0.55557 0.125 0.83147
v 0.382683 0.125 0.92388
v 0.19509 0.125 0.980785
v 0 0.125 1
v -0.19509 0.125 0.980785
v -0.382683 0.125 0.92388
v -0.55557 0.125 0.83147
v -0.707107 0.125 0.707107
v -0.83147 0.125 0.55557
v -0.92388 0.125 0.382683
v -0.980785 0.125 0.19509
v -1 0.125 0
v -0.980785 0.125 -0.19509
v -0.92388 0.125 -0.382683
v -0.83147 0.125 -0.55557
v -0.707107 0.125 -0.707107
v -0.55557 0.125 -0.83147
v -0.382683 0.125 -0.92388
v -0.19509 0.125 -0.980785
v 0 0.125 -1
v 0.19509 0.125 -0.980785
v 0.382683 0.125 -0.92388
v 0.55557 0.125 -0.83147
v 0.707107 0.125 -0.707107
v 0.83147 0.125 -0.55557
v 0.92388 0.125 -0.382683
v 0.980785 0.125 -0.19509
v 0.98682 0.15682 0
v 0.967858 0.15682 0.192519
v 0.911703 0.15682 0.37764
v 0.820511 0.15682 0.548248
v 0.697787 0.15682 0.697787
v 0.548248 0.15682 0.820511
v 0.37764 0.15682 0.911703
v 0.192519 0.15682 0.967858
v 0 0.15682 0.98682
v -0.192519 0.15682 0.967858
v -0.37764 0.15682 0.911703
v -0.548248 0.15682 0.820511
v -0.697787 0.15682 0.697787
v -0.820511 0.15682 0.548248
v -0.911703 0.15682 0.37764
v -0.967858 0.15682 0.192519
v -0.98682 0.15682 0
v -0.967858 0.15682 -0.192519
v -0.911703 0.15682 -0.37764
v -0.820511 0.15682 -0.548248
v -0.697787 0.15682 -0.697787
v -0.548248 0.15682 -0.820511
v -0.37764 0.15682 -0.911703
v -0.192519 0.15682 -0.967858
v 0 0.15682 -0.98682
v 0.192519 0.15682 -0.967858
v 0.37764 0.15682 -0.911703
v 0.548248 0.15682 -0.820511
v 0.697787 0.15682 -0.697787
v 0.820511 0.15682 -0.548248
v 0.911703 0.15682 -0.37764
v 0.967858 0.15682 -0.192519
v 0.955 0.17 0
v 0.93665 0.17 0.186311
v 0.882305 0.17 0.365463
v 0.794053 0.17 0.53057
v 0.675287 0.17 0.675287
v 0.53057 0.17 0.794053
v 0.365463 0.17 0.882305
v 0.186311 0.17 0.93665
v 0 0.17 0.955
v -0.186311 0.17 0.93665
v -0.365463 0.17 0.882305
v -0.53057 0.17 0.794053
v -0.675287 0.17 0.675287
v -0.794053 0.17 0.53057
v -0.882305 0.17 0.365463
v -0.93665 0.17 0.186311
v -0.955 0.17 0
v -0.93665 0.17 -0.186311
v -0.882305 0.17 -0.365463
v -0.794053 0.17 -0.53057
v -0.675287 0.17 -0.675287
v -0.53057 0.17 -0.794053
v -0.365463 0.17 -0.882305
v -0.186311 0.17 -0.93665
v 0 0.17 -0.955
v 0.186311 0.17 -0.93665
v 0.365463 0.17 -0.882305
v 0.53057 0.17 -0.794053
v 0.675287 0.17 -0.675287
v 0.794053 0.17 -0.53057
v 0.882305 0.17 -0.365463
v 0.93665 0.17 -0.186311
v 0.88 0.17 0
v 0.863091 0.17 0.171679
v 0.813014 0.17 0.336761
v 0.731693 0.17 0.488902
v 0.622254 0.17 0.622254
v 0.488902 0.17 0.731693
v 0.336761 0.17 0.813014
v 0.171679 0.17 0.863091
v 0 0.17 0.88
v -0.171679 0.17 0.863091
v -0.336761 0.17 0.813014
v -0.488902 0.17 0.731693
v -0.622254 0.17 0.622254
v -0.731693 0.17 0.488902
v -0.813014 0.17 0.336761
v -0.863091 0.17 0.171679
v -0.88 0.17 0
v -0.863091 0.17 -0.171679
v -0.813014 0.17 -0.336761
v -0.731693 0.17 -0.488902
v -0.622254 0.17 -0.622254
v -0.488902 0.17 -0.731693
v -0.336761 0.17 -0.813014
v -0.171679 0.17 -0.863091
v 0 0.17 -0.88
v 0.171679 0.17 -0.863091
v 0.336761 0.17 -0.813014
v 0.488902 0.17 -0.731693
v 0.622254 0.17 -0.622254
v 0.731693 0.17 -0.488902
v 0.813014 0.17 -0.336761
v 0.863091 0.17 -0.171679
v 0.863333 0.162222 0
v 0.846745 0.162222 0.168428
v 0.797616 0.162222 0.330383
v 0.717835 0.162222 0.479642
v 0.610469 0.162222 0.610469
v 0.479642 0.162222 0.717835
v 0.330383 0.162222 0.797616
v 0.168428 0.162222 0.846745
v 0 0.162222 0.863333
v -0.168428 0.162222 0.846745
v -0.330383 0.162222 0.797616
v -0.479642 0.162222 0.717835
v -0.610469 0.162222 0.610469
v -0.717835 0.162222 0.479642
v -0.797616 0.162222 0.330383
v -0.846745 0.162222 0.168428
v -0.863333 0.162222 0
v -0.846745 0.162222 -0.168428
v -0.797616 0.162222 -0.330383
v -0.717835 0.162222 -0.479642
v -0.610469 0.162222 -0.610469
v -0.479642 0.162222 -0.717835
v -0.330383 0.162222 -0.797616
v -0.168428 0.162222 -0.846745
v 0 0.162222 -0.863333
v 0.168428 0.162222 -0.846745
v 0.330383 0.162222 -0.797616
v 0.479642 0.162222 -0.717835
v 0.610469 0.162222 -0.610469
v 0.717835 0.162222 -0.479642
v 0.797616 0.162222 -0.330383
v 0.846745 0.162222 -0.168428
v 0.846667 0.147778 0
v 0.830398 0.147778 0.165176
v 0.782218 0.147778 0.324005
v 0.703978 0.147778 0.470383
v 0.598684 0.147778 0.598684
v 0.470383 0.147778 0.703978
v 0.324005 0.147778 0.782218
v 0.165176 0.147778 0.830398
v 0 0.147778 0.846667
v -0.165176 0.147778 0.830398
v -0.324005 0.147778 0.782218
v -0.470383 0.147778 0.703978
v -0.598684 0.147778 0.598684
v -0.703978 0.147778 0.470383
v -0.782218 0.147778 0.324005
v -0.830398 0.147778 0.165176
v -0.846667 0.147778 0
v -0.830398 0.147778 -0.165176
v -0.782218 0.147778 -0.324005
v -0.703978 0.147778 -0.470383
v -0.598684 0.147778 -0.598684
v -0.470383 0.147778 -0.703978
v -0.324005 0.147778 -0.782218
v -0.165176 0.147778 -0.830398
v 0 0.147778 -0.846667
v 0.165176 0.147778 -0.830398
v 0.324005 0.147778 -0.782218
v 0.470383 0.147778 -0.703978
v 0.598684 0.147778 -0.598684
v 0.703978 0.147778 -0.470383
v 0.782218 0.147778 -0.324005
v 0.830398 0.147778 -0.165176
v 0.83 0.14 0
v 0.814052 0.14 0.161925
v 0.76682 0.14 0.317627
v 0.69012 0.14 0.461123
v 0.586899 0.14 0.586899
v 0.461123 0.14 0.69012
v 0.317627 0.14 0.76682
v 0.161925 0.14 0.814052
v 0 0.14 0.83
v -0.161925 0.14 0.814052
v -0.317627 0.14 0.76682
v -0.461123 0.14 0.69012
v -0.586899 0.14 0.586899
v -0.69012 0.14 0.461123
v -0.76682 0.14 0.317627
v -0.814052 0.14 0.161925
v -0.83 0.14 0
v -0.814052 0.14 -0.161925
v -0.76682 0.14 -0.317627
v -0.69012 0.14 -0.461123
v -0.586899 0.14 -0.586899
v -0.461123 0.14 -0.69012
v -0.317627 0.14 -0.76682
v -0.161925 0.14 -0.814052
v 0 0.14 -0.83
v 0.161925 0.14 -0.814052
v 0.317627 0.14 -0.76682
v 0.461123 0.14 -0.69012
v 0.586899 0.14 -0.586899
v 0.69012 0.14 -0.461123
v 0.76682 0.14 -0.317627
v 0.814052 0.14 -0.161925
v 0 0.14 0
vt 0 0
vt 0.03125 0
vt 0.0625 0
vt 0.09375 0
vt 0.125 0
vt 0.15625 0
vt 0.1875 0
vt 0.21875 0
vt 0.25 0
vt 0.28125 0
vt 0.3125 0
vt 0.34375 0
vt 0.375 0
vt 0.40625 0
vt 0.4375 0
vt 0.46875 0
vt 0.5 0
vt 0.53125 0
vt 0.5625 0
vt 0.59375 0
vt 0.625 0
vt 0.65625 0
vt 0.6875 0
vt 0.71875 0
vt 0.75 0
vt 0.78125 0
vt 0.8125 0
vt 0.84375 0
vt 0.875 0
vt 0.90625 0
vt 0.9375 0
vt 0.96875 0
vt 1 0
vt 0 0.450661
vt 0.03125 0.450661
vt 0.0625 0.450661
vt 0.09375 0.450661
vt 0.125 0.450661
vt 0.15625 0.450661
vt 0.1875 0.450661
vt 0.21875 0.450661
vt 0.25 0.450661
vt 0.28125 0.450661
vt 0.3125 0.450661
vt 0.34375 0.450661
vt 0.375 0.450661
vt 0.40625 0.450661
vt 0.4375 0.450661
vt 0.46875 0.450661
vt 0.5 0.450661
vt 0.53125 0.450661
vt 0.5625 0.450661
vt 0.59375 0.450661
vt 0.625 0.450661
vt 0.65625 0.450661
vt 0.6875 0.450661
vt 0.71875 0.450661
vt 0.75 0.450661
vt 0.78125 0.450661
vt 0.8125 0.450661
vt 0.84375 0.450661
vt 0.875 0.450661
vt 0.90625 0.450661
vt 0.9375 0.450661
vt 0.96875 0.450661
vt 1 0.450661
vt 0 0.463171
vt 0.03125 0.463171
vt 0.0625 0.463171
vt 0.09375 0.463171
vt 0.125 0.463171
vt 0.15625 0.463171
vt 0.1875 0.463171
vt 0.21875 0.463171
vt 0.25 0.463171
vt 0.28125 0.463171
vt 0.3125 0.463171
vt 0.34375 0.463171
vt 0.375 0.463171
vt 0.40625 0.463171
vt 0.4375 0.463171
vt 0.46875 0.463171
vt 0.5 0.463171
vt 0.53125 0.463171
vt 0.5625 0.463171
vt 0.59375 0.463171
vt 0.625 0.463171
vt 0.65625 0.463171
vt 0.6875 0.463171
vt 0.71875 0.463171
vt 0.75 0.463171
vt 0.78125 0.463171
vt 0.8125 0.463171
vt 0.84375 0.463171
vt 0.875 0.463171
vt 0.90625 0.463171
vt 0.9375 0.463171
vt 0.96875 0.463171
vt 1 0.463171
vt 0 0.475681
vt 0.03125 0.475681
vt 0.0625 0.475681
vt 0.09375 0.475681
vt 0.125 0.475681
vt 0.15625 0.475681
vt 0.1875 0.475681
vt 0.21875 0.475681
vt 0.25 0.475681
vt 0.28125 0.475681
vt 0.3125 0.475681
vt 0.34375 0.475681
vt 0.375 0.475681
vt 0.40625 0.475681
vt 0.4375 0.475681
vt 0.46875 0.475681
vt 0.5 0.475681
vt 0.53125 0.475681
vt 0.5625 0.475681
vt 0.59375 0.475681
vt 0.625 0.475681
vt 0.65625 0.475681
vt 0.6875 0.475681
vt 0.71875 0.475681
vt 0.75 0.475681
vt 0.78125 0.475681
vt 0.8125 0.475681
vt 0.84375 0.475681
vt 0.875 0.475681
vt 0.90625 0.475681
vt 0.9375 0.475681
vt 0.96875 0.475681
vt 1 0.475681
vt 0 0.517712
vt 0.03125 0.517712
vt 0.0625 0.517712
vt 0.09375 0.517712
vt 0.125 0.517712
vt 0.15625 0.517712
vt 0.1875 0.517712
vt 0.21875 0.517712
vt 0.25 0.517712
vt 0.28125 0.517712
vt 0.3125 0.517712
vt 0.34375 0.517712
vt 0.375 0.517712
vt 0.40625 0.517712
vt 0.4375 0.517712
vt 0.46875 0.517712
vt 0.5 0.517712
vt 0.53125 0.517712
vt 0.5625 0.517712
vt 0.59375 0.517712
vt 0.625 0.517712
vt 0.65625 0.517712
vt 0.6875 0.517712
vt 0.71875 0.517712
vt 0.75 0.517712
vt 0.78125 0.517712
vt 0.8125 0.517712
vt 0.84375 0.517712
vt 0.875 0.517712
vt 0.90625 0.517712
vt 0.9375 0.517712
vt 0.96875 0.517712
vt 1 0.517712
vt 0 0.533796
vt 0.03125 0.533796
vt 0.0625 0.533796
vt 0.09375 0.533796
vt 0.125 0.533796
vt 0.15625 0.533796
vt 0.1875 0.533796
vt 0.21875 0.533796
vt 0.25 0.533796
vt 0.28125 0.533796
vt 0.3125 0.533796
vt 0.34375 0.533796
vt 0.375 0.533796
vt 0.40625 0.533796
vt 0.4375 0.533796
vt 0.46875 0.533796
vt 0.5 0.533796
vt 0.53125 0.533796
vt 0.5625 0.533796
vt 0.59375 0.533796
vt 0.625 0.533796
vt 0.65625 0.533796
vt 0.6875 0.533796
vt 0.71875 0.533796
vt 0.75 0.533796
vt 0.78125 0.533796
vt 0.8125 0.533796
vt 0.84375 0.533796
vt 0.875 0.533796
vt 0.90625 0.533796
vt 0.9375 0.533796
vt 0.96875 0.533796
vt 1 0.533796
vt 0 0.549881
vt 0.03125 0.549881
vt 0.0625 0.549881
vt 0.09375 0.549881
vt 0.125 0.549881
vt 0.15625 0.549881
vt 0.1875 0.549881
vt 0.21875 0.549881
vt 0.25 0.549881
vt 0.28125 0.549881
vt 0.3125 0.549881
vt 0.34375 0.549881
vt 0.375 0.549881
vt 0.40625 0.549881
vt 0.4375 0.549881
vt 0.46875 0.549881
vt 0.5 0.549881
vt 0.53125 0.549881
vt 0.5625 0.549881
vt 0.59375 0.549881
vt 0.625 0.549881
vt 0.65625 0.549881
vt 0.6875 0.549881
vt 0.71875 0.549881
vt 0.75 0.549881
vt 0.78125 0.549881
vt 0.8125 0.549881
vt 0.84375 0.549881
vt 0.875 0.549881
vt 0.90625 0.549881
vt 0.9375 0.549881
vt 0.96875 0.549881
vt 1 0.549881
vt 0 0.584906
vt 0.03125 0.584906
vt 0.0625 0.584906
vt 0.09375 0.584906
vt 0.125 0.584906
vt 0.15625 0.584906
vt 0.1875 0.584906
vt 0.21875 0.584906
vt 0.25 0.584906
vt 0.28125 0.584906
vt 0.3125 0.584906
vt 0.34375 0.584906
vt 0.375 0.584906
vt 0.40625 0.584906
vt 0.4375 0.584906
vt 0.46875 0.584906
vt 0.5 0.584906
vt 0.53125 0.584906
vt 0.5625 0.584906
vt 0.59375 0.584906
vt 0.625 0.584906
vt 0.65625 0.584906
vt 0.6875 0.584906
vt 0.71875 0.584906
vt 0.75 0.584906
vt 0.78125 0.584906
vt 0.8125 0.584906
vt 0.84375 0.584906
vt 0.875 0.584906
vt 0.90625 0.584906
vt 0.9375 0.584906
vt 0.96875 0.584906
vt 1 0.584906
vt 0 0.593496
vt 0.03125 0.593496
vt 0.0625 0.593496
vt 0.09375 0.593496
vt 0.125 0.593496
vt 0.15625 0.593496
vt 0.1875 0.593496
vt 0.21875 0.593496
vt 0.25 0.593496
vt 0.28125 0.593496
vt 0.3125 0.593496
vt 0.34375 0.593496
vt 0.375 0.593496
vt 0.40625 0.593496
vt 0.4375 0.593496
vt 0.46875 0.593496
vt 0.5 0.593496
vt 0.53125 0.593496
vt 0.5625 0.593496
vt 0.59375 0.593496
vt 0.625 0.593496
vt 0.65625 0.593496
vt 0.6875 0.593496
vt 0.71875 0.593496
vt 0.75 0.593496
vt 0.78125 0.593496
vt 0.8125 0.593496
vt 0.84375 0.593496
vt 0.875 0.593496
vt 0.90625 0.593496
vt 0.9375 0.593496
vt 0.96875 0.593496
vt 1 0.593496
vt 0 0.603795
vt 0.03125 0.603795
vt 0.0625 0.603795
vt 0.09375 0.603795
vt 0.125 0.603795
vt 0.15625 0.603795
vt 0.1875 0.603795
vt 0.21875 0.603795
vt 0.25 0.603795
vt 0.28125 0.603795
vt 0.3125 0.603795
vt 0.34375 0.603795
vt 0.375 0.603795
vt 0.40625 0.603795
vt 0.4375 0.603795
vt 0.46875 0.603795
vt 0.5 0.603795
vt 0.53125 0.603795
vt 0.5625 0.603795
vt 0.59375 0.603795
vt 0.625 0.603795
vt 0.65625 0.603795
vt 0.6875 0.603795
vt 0.71875 0.603795
vt 0.75 0.603795
vt 0.78125 0.603795
vt 0.8125 0.603795
vt 0.84375 0.603795
vt 0.875 0.603795
vt 0.90625 0.603795
vt 0.9375 0.603795
vt 0.96875 0.603795
vt 1 0.603795
vt 0 0.612385
vt 0.03125 0.612385
vt 0.0625 0.612385
vt 0.09375 0.612385
vt 0.125 0.612385
vt 0.15625 0.612385
vt 0.1875 0.612385
vt 0.21875 0.612385
vt 0.25 0.612385
vt 0.28125 0.612385
vt 0.3125 0.612385
vt 0.34375 0.612385
vt 0.375 0.612385
vt 0.40625 0.612385
vt 0.4375 0.612385
vt 0.46875 0.612385
vt 0.5 0.612385
vt 0.53125 0.612385
vt 0.5625 0.612385
vt 0.59375 0.612385
vt 0.625 0.612385
vt 0.65625 0.612385
vt 0.6875 0.612385
vt 0.71875 0.612385
vt 0.75 0.612385
vt 0.78125 0.612385
vt 0.8125 0.612385
vt 0.84375 0.612385
vt 0.875 0.612385
vt 0.90625 0.612385
vt 0.9375 0.612385
vt 0.96875 0.612385
vt 1 0.612385
vt 0 1
vt 0.03125 1
vt 0.0625 1
vt 0.09375 1
vt 0.125 1
vt 0.15625 1
vt 0.1875 1
vt 0.21875 1
vt 0.25 1
vt 0.28125 1
vt 0.3125 1
vt 0.34375 1
vt 0.375 1
vt 0.40625 1
vt 0.4375 1
vt 0.46875 1
vt 0.5 1
vt 0.53125 1
vt 0.5625 1
vt 0.59375 1
vt 0.625 1
vt 0.65625 1
vt 0.6875 1
vt 0.71875 1
vt 0.75 1
vt 0.78125 1
vt 0.8125 1
vt 0.84375 1
vt 0.875 1
vt 0.90625 1
vt 0.9375 1
vt 0.96875 1
vt 1 1
vn 0 -1 0
vn 0.19509 -0.980785 0
vn 0.191342 -0.980785 0.03806
vn 0.18024 -0.980785 0.074658
vn 0.162212 -0.980785 0.108386
vn 0.13795 -0.980785 0.13795
vn 0.108386 -0.980785 0.162212
vn 0.074658 -0.980785 0.18024
vn 0.03806 -0.980785 0.191342
vn 0 -0.980785 0.19509
vn -0.03806 -0.980785 0.191342
vn -0.074658 -0.980785 0.18024
vn -0.108386 -0.980785 0.162212
vn -0.13795 -0.980785 0.13795
vn -0.162212 -0.980785 0.108386
vn -0.18024 -0.980785 0.074658
vn -0.191342 -0.980785 0.03806
vn -0.19509 -0.980785 0
vn -0.191342 -0.980785 -0.03806
vn -0.18024 -0.980785 -0.074658
vn -0.162212 -0.980785 -0.108386
vn -0.13795 -0.980785 -0.13795
vn -0.108386 -0.980785 -0.162212
vn -0.074658 -0.980785 -0.18024
vn -0.03806 -0.980785 -0.191342
vn 0 -0.980785 -0.19509
vn 0.03806 -0.980785 -0.191342
vn 0.074658 -0.980785 -0.18024
vn 0.108386 -0.980785 -0.162212
vn 0.13795 -0.980785 -0.13795
vn 0.162212 -0.980785 -0.108386
vn 0.18024 -0.980785 -0.074658
vn 0.191342 -0.980785 -0.03806
vn 0.707107 -0.707107 0
vn 0.69352 -0.707107 0.13795
vn 0.653281 -0.707107 0.270598
vn 0.587938 -0.707107 0.392847
vn 0.5 -0.707107 0.5
vn 0.392847 -0.707107 0.587938
vn 0.270598 -0.707107 0.653281
vn 0.13795 -0.707107 0.69352
vn 0 -0.707107 0.707107
vn -0.13795 -0.707107 0.69352
vn -0.270598 -0.707107 0.653281
vn -0.392847 -0.707107 0.587938
vn -0.5 -0.707107 0.5
vn -0.587938 -0.707107 0.392847
vn -0.653281 -0.707107 0.270598
vn -0.69352 -0.707107 0.13795
vn -0.707107 -0.707107 0
vn -0.69352 -0.707107 -0.13795
vn -0.653281 -0.707107 -0.270598
vn -0.587938 -0.707107 -0.392847
vn -0.5 -0.707107 -0.5
vn -0.392847 -0.707107 -0.587938
vn -0.270598 -0.707107 -0.653281
vn -0.13795 -0.707107 -0.69352
vn 0 -0.707107 -0.707107
vn 0.13795 -0.707107 -0.69352
vn 0.270598 -0.707107 -0.653281
vn 0.392847 -0.707107 -0.587938
vn 0.5 -0.707107 -0.5
vn 0.587938 -0.707107 -0.392847
vn 0.653281 -0.707107 -0.270598
vn 0.69352 -0.707107 -0.13795
vn 0.980785 -0.19509 0
vn 0.96194 -0.19509 0.191342
vn 0.906127 -0.19509 0.37533
vn 0.815493 -0.19509 0.544895
vn 0.69352 -0.19509 0.69352
vn 0.544895 -0.19509 0.815493
vn 0.37533 -0.19509 0.906127
vn 0.191342 -0.19509 0.96194
vn 0 -0.19509 0.980785
vn -0.191342 -0.19509 0.96194
vn -0.37533 -0.19509 0.906127
vn -0.544895 -0.19509 0.815493
vn -0.69352 -0.19509 0.69352
vn -0.815493 -0.19509 0.544895
vn -0.906127 -0.19509 0.37533
vn -0.96194 -0.19509 0.191342
vn -0.980785 -0.19509 0
vn -0.96194 -0.19509 -0.191342
vn -0.906127 -0.19509 -0.37533
vn -0.815493 -0.19509 -0.544895
vn -0.69352 -0.19509 -0.69352
vn -0.544895 -0.19509 -0.815493
vn -0.37533 -0.19509 -0.906127
vn -0.191342 -0.19509 -0.96194
vn 0 -0.19509 -0.980785
vn 0.191342 -0.19509 -0.96194
vn 0.37533 -0.19509 -0.906127
vn 0.544895 -0.19509 -0.815493
vn 0.69352 -0.19509 -0.69352
vn 0.815493 -0.19509 -0.544895
vn 0.906127 -0.19509 -0.37533
vn 0.96194 -0.19509 -0.191342
vn 0.980785 0.19509 0
vn 0.96194 0.19509 0.191342
vn 0.906127 0.19509 0.37533
vn 0.815493 0.19509 0.544895
vn 0.69352 0.19509 0.69352
vn 0.544895 0.19509 0.815493
vn 0.37533 0.19509 0.906127
vn 0.191342 0.19509 0.96194
vn 0 0.19509 0.980785
vn -0.191342 0.19509 0.96194
vn -0.37533 0.19509 0.906127
vn -0.544895 0.19509 0.815493
vn -0.69352 0.19509 0.69352
vn -0.815493 0.19509 0.544895
vn -0.906127 0.19509 0.37533
vn -0.96194 0.19509 0.191342
vn -0.980785 0.19509 0
vn -0.96194 0.19509 -0.191342
vn -0.906127 0.19509 -0.37533
vn -0.815493 0.19509 -0.544895
vn -0.69352 0.19509 -0.69352
vn -0.544895 0.19509 -0.815493
vn -0.37533 0.19509 -0.906127
vn -0.191342 0.19509 -0.96194
vn 0 0.19509 -0.980785
vn 0.191342 0.19509 -0.96194
vn 0.37533 0.19509 -0.906127
vn 0.544895 0.19509 -0.815493
vn 0.69352 0.19509 -0.69352
vn 0.815493 0.19509 -0.544895
vn 0.906127 0.19509 -0.37533
vn 0.96194 0.19509 -0.191342
vn 0.707107 0.707107 0
vn 0.69352 0.707107 0.13795
vn 0.653281 0.707107 0.270598
vn 0.587938 0.707107 0.392847
vn 0.5 0.707107 0.5
vn 0.392847 0.707107 0.587938
vn 0.270598 0.707107 0.653281
vn 0.13795 0.707107 0.69352
vn 0 0.707107 0.707107
vn -0.13795 0.707107 0.69352
vn -0.270598 0.707107 0.653281
vn -0.392847 0.707107 0.587938
vn -0.5 0.707107 0.5
vn -0.587938 0.707107 0.392847
vn -0.653281 0.707107 0.270598
vn -0.69352 0.707107 0.13795
vn -0.707107 0.707107 0
vn -0.69352 0.707107 -0.13795
vn -0.653281 0.707107 -0.270598
vn -0.587938 0.707107 -0.392847
vn -0.5 0.707107 -0.5
vn -0.392847 0.707107 -0.587938
vn -0.270598 0.707107 -0.653281
vn -0.13795 0.707107 -0.69352
vn 0 0.707107 -0.707107
vn 0.13795 0.707107 -0.69352
vn 0.270598 0.707107 -0.653281
vn 0.392847 0.707107 -0.587938
vn 0.5 0.707107 -0.5
vn 0.587938 0.707107 -0.392847
vn 0.653281 0.707107 -0.270598
vn 0.69352 0.707107 -0.13795
vn 0.19509 0.980785 0
vn 0.191342 0.980785 0.03806
vn 0.18024 0.980785 0.074658
vn 0.162212 0.980785 0.108386
vn 0.13795 0.980785 0.13795
vn 0.108386 0.980785 0.162212
vn 0.074658 0.980785 0.18024
vn 0.03806 0.980785 0.191342
vn 0 0.980785 0.19509
vn -0.03806 0.980785 0.191342
vn -0.074658 0.980785 0.18024
vn -0.108386 0.980785 0.162212
vn -0.13795 0.980785 0.13795
vn -0.162212 0.980785 0.108386
vn -0.18024 0.980785 0.074658
vn -0.191342 0.980785 0.03806
vn -0.19509 0.980785 0
vn -0.191342 0.980785 -0.03806
vn -0.18024 0.980785 -0.074658
vn -0.162212 0.980785 -0.108386
vn -0.13795 0.980785 -0.13795
vn -0.108386 0.980785 -0.162212
vn -0.074658 0.980785 -0.18024
vn -0.03806 0.980785 -0.191342
vn 0 0.980785 -0.19509
vn 0.03806 0.980785 -0.191342
vn 0.074658 0.980785 -0.18024
vn 0.108386 0.980785 -0.162212
vn 0.13795 0.980785 -0.13795
vn 0.162212 0.980785 -0.108386
vn 0.18024 0.980785 -0.074658
vn 0.191342 0.980785 -0.03806
vn -0.216584 0.976264 0
vn -0.212422 0.976264 -0.042253
vn -0.200097 0.976264 -0.082883
vn -0.180083 0.976264 -0.120327
vn -0.153148 0.976264 -0.153148
vn -0.120327 0.976264 -0.180083
vn -0.082883 0.976264 -0.200097
vn -0.042253 0.976264 -0.212422
vn 0 0.976264 -0.216584
vn 0.042253 0.976264 -0.212422
vn 0.082883 0.976264 -0.200097
vn 0.120327 0.976264 -0.180083
vn 0.153148 0.976264 -0.153148
vn 0.180083 0.976264 -0.120327
vn 0.200097 0.976264 -0.082883
vn 0.212422 0.976264 -0.042253
vn 0.216584 0.976264 0
vn 0.212422 0.976264 0.042253
vn 0.200097 0.976264 0.082883
vn 0.180083 0.976264 0.120327
vn 0.153148 0.976264 0.153148
vn 0.120327 0.976264 0.180083
vn 0.082883 0.976264 0.200097
vn 0.042253 0.976264 0.212422
vn 0 0.976264 0.216584
vn -0.042253 0.976264 0.212422
vn -0.082883 0.976264 0.200097
vn -0.120327 0.976264 0.180083
vn -0.153148 0.976264 0.153148
vn -0.180083 0.976264 0.120327
vn -0.200097 0.976264 0.082883
vn -0.212422 0.976264 0.042253
vn -0.544136 0.838997 0
vn -0.533681 0.838997 -0.106156
vn -0.502716 0.838997 -0.208232
vn -0.452433 0.838997 -0.302306
vn -0.384762 0.838997 -0.384762
vn -0.302306 0.838997 -0.452433
vn -0.208232 0.838997 -0.502716
vn -0.106156 0.838997 -0.533681
vn 0 0.838997 -0.544136
vn 0.106156 0.838997 -0.533681
vn 0.208232 0.838997 -0.502716
vn 0.302306 0.838997 -0.452433
vn 0.384762 0.838997 -0.384762
vn 0.452433 0.838997 -0.302306
vn 0.502716 0.838997 -0.208232
vn 0.533681 0.838997 -0.106156
vn 0.544136 0.838997 0
vn 0.533681 0.838997 0.106156
vn 0.502716 0.838997 0.208232
vn 0.452433 0.838997 0.302306
vn 0.384762 0.838997 0.384762
vn 0.302306 0.838997 0.452433
vn 0.208232 0.838997 0.502716
vn 0.106156 0.838997 0.533681
vn 0 0.838997 0.544136
vn -0.106156 0.838997 0.533681
vn -0.208232 0.838997 0.502716
vn -0.302306 0.838997 0.452433
vn -0.384762 0.838997 0.384762
vn -0.452433 0.838997 0.302306
vn -0.502716 0.838997 0.208232
vn -0.533681 0.838997 0.106156
vn -0.544136 0.838997 0
vn -0.533681 0.838997 -0.106156
vn -0.502716 0.838997 -0.208232
vn -0.452433 0.838997 -0.302306
vn -0.384762 0.838997 -0.384762
vn -0.302306 0.838997 -0.452433
vn -0.208232 0.838997 -0.502716
vn -0.106156 0.838997 -0.533681
vn 0 0.838997 -0.544136
vn 0.106156 0.838997 -0.533681
vn 0.208232 0.838997 -0.502716
vn 0.302306 0.838997 -0.452433
vn 0.384762 0.838997 -0.384762
vn 0.452433 0.838997 -0.302306
vn 0.502716 0.838997 -0.208232
vn 0.533681 0.838997 -0.106156
vn 0.544136 0.838997 0
vn 0.533681 0.838997 0.106156
vn 0.502716 0.838997 0.208232
vn 0.452433 0.838997 0.302306
vn 0.384762 0.838997 0.384762
vn 0.302306 0.838997 0.452433
vn 0.208232 0.838997 0.502716
vn 0.106156 0.838997 0.533681
vn 0 0.838997 0.544136
vn -0.106156 0.838997 0.533681
vn -0.208232 0.838997 0.502716
vn -0.302306 0.838997 0.452433
vn -0.384762 0.838997 0.384762
vn -0.452433 0.838997 0.302306
vn -0.502716 0.838997 0.208232
vn -0.533681 0.838997 0.106156
vn -0.216584 0.976264 0
vn -0.212422 0.976264 -0.042253
vn -0.200097 0.976264 -0.082883
vn -0.180083 0.976264 -0.120327
vn -0.153148 0.976264 -0.153148
vn -0.120327 0.976264 -0.180083
vn -0.082883 0.976264 -0.200097
vn -0.042253 0.976264 -0.212422
vn 0 0.976264 -0.216584
vn 0.042253 0.976264 -0.212422
vn 0.082883 0.976264 -0.200097
vn 0.120327 0.976264 -0.180083
vn 0.153148 0.976264 -0.153148
vn 0.180083 0.976264 -0.120327
vn 0.200097 0.976264 -0.082883
vn 0.212422 0.976264 -0.042253
vn 0.216584 0.976264 0
vn 0.212422 0.976264 0.042253
vn 0.200097 0.976264 0.082883
vn 0.180083 0.976264 0.120327
vn 0.153148 0.976264 0.153148
vn 0.120327 0.976264 0.180083
vn 0.082883 0.976264 0.200097
vn 0.042253 0.976264 0.212422
vn 0 0.976264 0.216584
vn -0.042253 0.976264 0.212422
vn -0.082883 0.976264 0.200097
vn -0.120327 0.976264 0.180083
vn -0.153148 0.976264 0.153148
vn -0.180083 0.976264 0.120327
vn -0.200097 0.976264 0.082883
vn -0.212422 0.976264 0.042253
vn 0 1 0
usemtl cork
s 1
f 1/1/1 2/34/2 3/35/3
f 1/2/1 3/35/3 4/36/4
f 1/3/1 4/36/4 5/37/5
f 1/4/1 5/37/5 6/38/6
f 1/5/1 6/38/6 7/39/7
f 1/6/1 7/39/7 8/40/8
f 1/7/1 8/40/8 9/41/9
f 1/8/1 9/41/9 10/42/10
f 1/9/1 10/42/10 11/43/11
f 1/10/1 11/43/11 12/44/12
f 1/11/1 12/44/12 13/45/13
f 1/12/1 13/45/13 14/46/14
f 1/13/1 14/46/14 15/47/15
f 1/14/1 15/47/15 16/48/16
f 1/15/1 16/48/16 17/49/17
f 1/16/1 17/49/17 18/50/18
f 1/17/1 18/50/18 19/51/19
f 1/18/1 19/51/19 20/52/20
f 1/19/1 20/52/20 21/53/21
f 1/20/1 21/53/21 22/54/22
f 1/21/1 22/54/22 23/55/23
f 1/22/1 23/55/23 24/56/24
f 1/23/1 24/56/24 25/57/25
f 1/24/1 25/57/25 26/58/26
f 1/25/1 26/58/26 27/59/27
f 1/26/1 27/59/27 28/60/28
f 1/27/1 28/60/28 29/61/29
f 1/28/1 29/61/29 30/62/30
f 1/29/1 30/62/30 31/63/31
f 1/30/1 31/63/31 32/64/32
f 1/31/1 32/64/32 33/65/33
f 1/32/1 33/65/33 2/66/2
f 2/34/2 34/67/34 35/68/35 3/35/3
f 3/35/3 35/68/35 36/69/36 4/36/4
f 4/36/4 36/69/36 37/70/37 5/37/5
f 5/37/5 37/70/37 38/71/38 6/38/6
f 6/38/6 38/71/38 39/72/39 7/39/7
f 7/39/7 39/72/39 40/73/40 8/40/8
f 8/40/8 40/73/40 41/74/41 9/41/9
f 9/41/9 41/74/41 42/75/42 10/42/10
f 10/42/10 42/75/42 43/76/43 11/43/11
f 11/43/11 43/76/43 44/77/44 12/44/12
f 12/44/12 44/77/44 45/78/45 13/45/13
f 13/45/13 45/78/45 46/79/46 14/46/14
f 14/46/14 46/79/46 47/80/47 15/47/15
f 15/47/15 47/80/47 48/81/48 16/48/16
f 16/48/16 48/81/48 49/82/49 17/49/17
f 17/49/17 49/82/49 50/83/50 18/50/18
f 18/50/18 50/83/50 51/84/51 19/51/19
f 19/51/19 51/84/51 52/85/52 20/52/20
f 20/52/20 52/85/52 53/86/53 21/53/21
f 21/53/21 53/86/53 54/87/54 22/54/22
f 22/54/22 54/87/54 55/88/55 23/55/23
f 23/55/23 55/88/55 56/89/56 24/56/24
f 24/56/24 56/89/56 57/90/57 25/57/25
f 25/57/25 57/90/57 58/91/58 26/58/26
f 26/58/26 58/91/58 59/92/59 27/59/27
f 27/59/27 59/92/59 60/93/60 28/60/28
f 28/60/28 60/93/60 61/94/61 29/61/29
f 29/61/29 61/94/61 62/95/62 30/62/30
f 30/62/30 62/95/62 63/96/63 31/63/31
f 31/63/31 63/96/63 64/97/64 32/64/32
f 32/64/32 64/97/64 65/98/65 33/65/33
f 33/65/33 65/98/65 34/99/34 2/66/2
f 34/67/34 66/100/66 67/101/67 35/68/35
f 35/68/35 67/101/67 68/102/68 36/69/36
f 36/69/36 68/102/68 69/103/69 37/70/37
f 37/70/37 69/103/69 70/104/70 38/71/38
f 38/71/38 70/104/70 71/105/71 39/72/39
f 39/72/39 71/105/71 72/106/72 40/73/40
f 40/73/40 72/106/72 73/107/73 41/74/41
f 41/74/41 73/107/73 74/108/74 42/75/42
f 42/75/42 74/108/74 75/109/75 43/76/43
f 43/76/43 75/109/75 76/110/76 44/77/44
f 44/77/44 76/110/76 77/111/77 45/78/45
f 45/78/45 77/111/77 78/112/78 46/79/46
f 46/79/46 78/112/78 79/113/79 47/80/47
f 47/80/47 79/113/79 80/114/80 48/81/48
f 48/81/48 80/114/80 81/115/81 49/82/49
f 49/82/49 81/115/81 82/116/82 50/83/50
f 50/83/50 82/116/82 83/117/83 51/84/51
f 51/84/51 83/117/83 84/118/84 52/85/52
f 52/85/52 84/118/84 85/119/85 53/86/53
f 53/86/53 85/119/85 86/120/86 54/87/54
f 54/87/54 86/120/86 87/121/87 55/88/55
f 55/88/55 87/121/87 88/122/88 56/89/56
f 56/89/56 88/122/88 89/123/89 57/90/57
f 57/90/57 89/123/89 90/124/90 58/91/58
f 58/91/58 90/124/90 91/125/91 59/92/59
f 59/92/59 91/125/91 92/126/92 60/93/60
f 60/93/60 92/126/92 93/127/93 61/94/61
f 61/94/61 93/127/93 94/128/94 62/95/62
f 62/95/62 94/128/94 95/129/95 63/96/63
f 63/96/63 95/129/95 96/130/96 64/97/64
f 64/97/64 96/130/96 97/131/97 65/98/65
f 65/98/65 97/131/97 66/132/66 34/99/34
f 66/100/66 98/133/98 99/134/99 67/101/67
f 67/101/67 99/134/99 100/135/100 68/102/68
f 68/102/68 100/135/100 101/136/101 69/103/69
f 69/103/69 101/136/101 102/137/102 70/104/70
f 70/104/70 102/137/102 103/138/103 71/105/71
f 71/105/71 103/138/103 104/139/104 72/106/72
f 72/106/72 104/139/104 105/140/105 73/107/73
f 73/107/73 105/140/105 106/141/106 74/108/74
f 74/108/74 106/141/106 107/142/107 75/109/75
f 75/109/75 107/142/107 108/143/108 76/110/76
f 76/110/76 108/143/108 109/144/109 77/111/77
f 77/111/77 109/144/109 110/145/110 78/112/78
f 78/112/78 110/145/110 111/146/111 79/113/79
f 79/113/79 111/146/111 112/147/112 80/114/80
f 80/114/80 112/147/112 113/148/113 81/115/81
f 81/115/81 113/148/113 114/149/114 82/116/82
f 82/116/82 114/149/114 115/150/115 83/117/83
f 83/117/83 115/150/115 116/151/116 84/118/84
f 84/118/84 116/151/116 117/152/117 85/119/85
f 85/119/85 117/152/117 118/153/118 86/120/86
f 86/120/86 118/153/118 119/154/119 87/121/87
f 87/121/87 119/154/119 120/155/120 88/122/88
f 88/122/88 120/155/120 121/156/121 89/123/89
f 89/123/89 121/156/121 122/157/122 90/124/90
f 90/124/90 122/157/122 123/158/123 91/125/91
f 91/125/91 123/158/123 124/159/124 92/126/92
f 92/126/92 124/159/124 125/160/125 93/127/93
f 93/127/93 125/160/125 126/161/126 94/128/94
f 94/128/94 126/161/126 127/162/127 95/129/95
f 95/129/95 127/162/127 128/163/128 96/130/96
f 96/130/96 128/163/128 129/164/129 97/131/97
f 97/131/97 129/164/129 98/165/98 66/132/66
f 98/133/98 130/166/130 131/167/131 99/134/99
f 99/134/99 131/167/131 132/168/132 100/135/100
f 100/135/100 132/168/132 133/169/133 101/136/101
f 101/136/101 133/169/133 134/170/134 102/137/102
f 102/137/102 134/170/134 135/171/135 103/138/103
f 103/138/103 135/171/135 136/172/136 104/139/104
f 104/139/104 136/172/136 137/173/137 105/140/105
f 105/140/105 137/173/137 138/174/138 106/141/106
f 106/141/106 138/174/138 139/175/139 107/142/107
f 107/142/107 139/175/139 140/176/140 108/143/108
f 108/143/108 140/176/140 141/177/141 109/144/109
f 109/144/109 141/177/141 142/178/142 110/145/110
f 110/145/110 142/178/142 143/179/143 111/146/111
f 111/146/111 143/179/143 144/180/144 112/147/112
f 112/147/112 144/180/144 145/181/145 113/148/113
f 113/148/113 145/181/145 146/182/146 114/149/114
f 114/149/114 146/182/146 147/183/147 115/150/115
f 115/150/115 147/183/147 148/184/148 116/151/116
f 116/151/116 148/184/148 149/185/149 117/152/117
f 117/152/117 149/185/149 150/186/150 118/153/118
f 118/153/118 150/186/150 151/187/151 119/154/119
f 119/154/119 151/187/151 152/188/152 120/155/120
f 120/155/120 152/188/152 153/189/153 121/156/121
f 121/156/121 153/189/153 154/190/154 122/157/122
f 122/157/122 154/190/154 155/191/155 123/158/123
f 123/158/123 155/191/155 156/192/156 124/159/124
f 124/159/124 156/192/156 157/193/157 125/160/125
f 125/160/125 157/193/157 158/194/158 126/161/126
f 126/161/126 158/194/158 159/195/159 127/162/127
f 127/162/127 159/195/159 160/196/160 128/163/128
f 128/163/128 160/196/160 161/197/161 129/164/129
f 129/164/129 161/197/161 130/198/130 98/165/98
f 130/166/130 162/199/162 163/200/163 131/167/131
f 131/167/131 163/200/163 164/201/164 132/168/132
f 132/168/132 164/201/164 165/202/165 133/169/133
f 133/169/133 165/202/165 166/203/166 134/170/134
f 134/170/134 166/203/166 167/204/167 135/171/135
f 135/171/135 167/204/167 168/205/168 136/172/136
f 136/172/136 168/205/168 169/206/169 137/173/137
f 137/173/137 169/206/169 170/207/170 138/174/138
f 138/174/138 170/207/170 171/208/171 139/175/139
f 139/175/139 171/208/171 172/209/172 140/176/140
f 140/176/140 172/209/172 173/210/173 141/177/141
f 141/177/141 173/210/173 174/211/174 142/178/142
f 142/178/142 174/211/174 175/212/175 143/179/143
f 143/179/143 175/212/175 176/213/176 144/180/144
f 144/180/144 176/213/176 177/214/177 145/181/145
f 145/181/145 177/214/177 178/215/178 146/182/146
f 146/182/146 178/215/178 179/216/179 147/183/147
f 147/183/147 179/216/179 180/217/180 148/184/148
f 148/184/148 180/217/180 181/218/181 149/185/149
f 149/185/149 181/218/181 182/219/182 150/186/150
f 150/186/150 182/219/182 183/220/183 151/187/151
f 151/187/151 183/220/183 184/221/184 152/188/152
f 152/188/152 184/221/184 185/222/185 153/189/153
f 153/189/153 185/222/185 186/223/186 154/190/154
f 154/190/154 186/223/186 187/224/187 155/191/155
f 155/191/155 187/224/187 188/225/188 156/192/156
f 156/192/156 188/225/188 189/226/189 157/193/157
f 157/193/157 189/226/189 190/227/190 158/194/158
f 158/194/158 190/227/190 191/228/191 159/195/159
f 159/195/159 191/228/191 192/229/192 160/196/160
f 160/196/160 192/229/192 193/230/193 161/197/161
f 161/197/161 193/230/193 162/231/162 130/198/130
f 162/199/162 194/232/194 195/233/195 163/200/163
f 163/200/163 195/233/195 196/234/196 164/201/164
f 164/201/164 196/234/196 197/235/197 165/202/165
f 165/202/165 197/235/197 198/236/198 166/203/166
f 166/203/166 198/236/198 199/237/199 167/204/167
f 167/204/167 199/237/199 200/238/200 168/205/168
f 168/205/168 200/238/200 201/239/201 169/206/169
f 169/206/169 201/239/201 202/240/202 170/207/170
f 170/207/170 202/240/202 203/241/203 171/208/171
f 171/208/171 203/241/203 204/242/204 172/209/172
f 172/209/172 204/242/204 205/243/205 173/210/173
f 173/210/173 205/243/205 206/244/206 174/211/174
f 174/211/174 206/244/206 207/245/207 175/212/175
f 175/212/175 207/245/207 208/246/208 176/213/176
f 176/213/176 208/246/208 209/247/209 177/214/177
f 177/214/177 209/247/209 210/248/210 178/215/178
f 178/215/178 210/248/210 211/249/211 179/216/179
f 179/216/179 211/249/211 212/250/212 180/217/180
f 180/217/180 212/250/212 213/251/213 181/218/181
f 181/218/181 213/251/213 214/252/214 182/219/182
f 182/219/182 214/252/214 215/253/215 183/220/183
f 183/220/183 215/253/215 216/254/216 184/221/184
f 184/221/184 216/254/216 217/255/217 185/222/185
f 185/222/185 217/255/217 218/256/218 186/223/186
f 186/223/186 218/256/218 219/257/219 187/224/187
f 187/224/187 219/257/219 220/258/220 188/225/188
f 188/225/188 220/258/220 221/259/221 189/226/189
f 189/226/189 221/259/221 222/260/222 190/227/190
f 190/227/190 222/260/222 223/261/223 191/228/191
f 191/228/191 223/261/223 224/262/224 192/229/192
f 192/229/192 224/262/224 225/263/225 193/230/193
f 193/230/193 225/263/225 194/264/194 162/231/162
f 194/232/194 226/265/226 227/266/227 195/233/195
f 195/233/195 227/266/227 228/267/228 196/234/196
f 196/234/196 228/267/228 229/268/229 197/235/197
f 197/235/197 229/268/229 230/269/230 198/236/198
f 198/236/198 230/269/230 231/270/231 199/237/199
f 199/237/199 231/270/231 232/271/232 200/238/200
f 200/238/200 232/271/232 233/272/233 201/239/201
f 201/239/201 233/272/233 234/273/234 202/240/202
f 202/240/202 234/273/234 235/274/235 203/241/203
f 203/241/203 235/274/235 236/275/236 204/242/204
f 204/242/204 236/275/236 237/276/237 205/243/205
f 205/243/205 237/276/237 238/277/238 206/244/206
f 206/244/206 238/277/238 239/278/239 207/245/207
f 207/245/207 239/278/239 240/279/240 208/246/208
f 208/246/208 240/279/240 241/280/241 209/247/209
f 209/247/209 241/280/241 242/281/242 210/248/210
f 210/248/210 242/281/242 243/282/243 211/249/211
f 211/249/211 243/282/243 244/283/244 212/250/212
f 212/250/212 244/283/244 245/284/245 213/251/213
f 213/251/213 245/284/245 246/285/246 214/252/214
f 214/252/214 246/285/246 247/286/247 215/253/215
f 215/253/215 247/286/247 248/287/248 216/254/216
f 216/254/216 248/287/248 249/288/249 217/255/217
f 217/255/217 249/288/249 250/289/250 218/256/218
f 218/256/218 250/289/250 251/290/251 219/257/219
f 219/257/219 251/290/251 252/291/252 220/258/220
f 220/258/220 252/291/252 253/292/253 221/259/221
f 221/259/221 253/292/253 254/293/254 222/260/222
f 222/260/222 254/293/254 255/294/255 223/261/223
f 223/261/223 255/294/255 256/295/256 224/262/224
f 224/262/224 256/295/256 257/296/257 225/263/225
f 225/263/225 257/296/257 226/297/226 194/264/194
f 226/265/226 258/298/258 259/299/259 227/266/227
f 227/266/227 259/299/259 260/300/260 228/267/228
f 228/267/228 260/300/260 261/301/261 229/268/229
f 229/268/229 261/301/261 262/302/262 230/269/230
f 230/269/230 262/302/262 263/303/263 231/270/231
f 231/270/231 263/303/263 264/304/264 232/271/232
f 232/271/232 264/304/264 265/305/265 233/272/233
f 233/272/233 265/305/265 266/306/266 234/273/234
f 234/273/234 266/306/266 267/307/267 235/274/235
f 235/274/235 267/307/267 268/308/268 236/275/236
f 236/275/236 268/308/268 269/309/269 237/276/237
f 237/276/237 269/309/269 270/310/270 238/277/238
f 238/277/238 270/310/270 271/311/271 239/278/239
f 239/278/239 271/311/271 272/312/272 240/279/240
f 240/279/240 272/312/272 273/313/273 241/280/241
f 241/280/241 273/313/273 274/314/274 242/281/242
f 242/281/242 274/314/274 275/315/275 243/282/243
f 243/282/243 275/315/275 276/316/276 244/283/244
f 244/283/244 276/316/276 277/317/277 245/284/245
f 245/284/245 277/317/277 278/318/278 246/285/246
f 246/285/246 278/318/278 279/319/279 247/286/247
f 247/286/247 279/319/279 280/320/280 248/287/248
f 248/287/248 280/320/280 281/321/281 249/288/249
f 249/288/249 281/321/281 282/322/282 250/289/250
f 250/289/250 282/322/282 283/323/283 251/290/251
f 251/290/251 283/323/283 284/324/284 252/291/252
f 252/291/252 284/324/284 285/325/285 253/292/253
f 253/292/253 285/325/285 286/326/286 254/293/254
f 254/293/254 286/326/286 287/327/287 255/294/255
f 255/294/255 287/327/287 288/328/288 256/295/256
f 256/295/256 288/328/288 289/329/289 257/296/257
f 257/296/257 289/329/289 258/330/258 226/297/226
f 258/298/258 290/331/290 291/332/291 259/299/259
f 259/299/259 291/332/291 292/333/292 260/300/260
f 260/300/260 292/333/292 293/334/293 261/301/261
f 261/301/261 293/334/293 294/335/294 262/302/262
f 262/302/262 294/335/294 295/336/295 263/303/263
f 263/303/263 295/336/295 296/337/296 264/304/264
f 264/304/264 296/337/296 297/338/297 265/305/265
f 265/305/265 297/338/297 298/339/298 266/306/266
f 266/306/266 298/339/298 299/340/299 267/307/267
f 267/307/267 299/340/299 300/341/300 268/308/268
f 268/308/268 300/341/300 301/342/301 269/309/269
f 269/309/269 301/342/301 302/343/302 270/310/270
f 270/310/270 302/343/302 303/344/303 271/311/271
f 271/311/271 303/344/303 304/345/304 272/312/272
f 272/312/272 304/345/304 305/346/305 273/313/273
f 273/313/273 305/346/305 306/347/306 274/314/274
f 274/314/274 306/347/306 307/348/307 275/315/275
f 275/315/275 307/348/307 308/349/308 276/316/276
f 276/316/276 308/349/308 309/350/309 277/317/277
f 277/317/277 309/350/309 310/351/310 278/318/278
f 278/318/278 310/351/310 311/352/311 279/319/279
f 279/319/279 311/352/311 312/353/312 280/320/280
f 280/320/280 312/353/312 313/354/313 281/321/281
f 281/321/281 313/354/313 314/355/314 282/322/282
f 282/322/282 314/355/314 315/356/315 283/323/283
f 283/323/283 315/356/315 316/357/316 284/324/284
f 284/324/284 316/357/316 317/358/317 285/325/285
f 285/325/285 317/358/317 318/359/318 286/326/286
f 286/326/286 318/359/318 319/360/319 287/327/287
f 287/327/287 319/360/319 320/361/320 288/328/288
f 288/328/288 320/361/320 321/362/321 289/329/289
f 289/329/289 321/362/321 290/363/290 258/330/258
f 290/331/290 322/364/322 291/332/291
f 291/332/291 322/365/322 292/333/292
f 292/333/292 322/366/322 293/334/293
f 293/334/293 322/367/322 294/335/294
f 294/335/294 322/368/322 295/336/295
f 295/336/295 322/369/322 296/337/296
f 296/337/296 322/370/322 297/338/297
f 297/338/297 322/371/322 298/339/298
f 298/339/298 322/372/322 299/340/299
f 299/340/299 322/373/322 300/341/300
f 300/341/300 322/374/322 301/342/301
f 301/342/301 322/375/322 302/343/302
f 302/343/302 322/376/322 303/344/303
f 303/344/303 322/377/322 304/345/304
f 304/345/304 322/378/322 305/346/305
f 305/346/305 322/379/322 306/347/306
f 306/347/306 322/380/322 307/348/307
f 307/348/307 322/381/322 308/349/308
f 308/349/308 322/382/322 309/350/309
f 309/350/309 322/383/322 310/351/310
f 310/351/310 322/384/322 311/352/311
f 311/352/311 322/385/322 312/353/312
f 312/353/312 322/386/322 313/354/313
f 313/354/313 322/387/322 314/355/314
f 314/355/314 322/388/322 315/356/315
f 315/356/315 322/389/322 316/357/316
f 316/357/316 322/390/322 317/358/317
f 317/358/317 322/391/322 318/359/318
f 318/359/318 322/392/322 319/360/319
f 319/360/319 322/393/322 320/361/320
f 320/361/320 322/394/322 321/362/321
f 321/362/321 322/395/322 290/363/290
